<mxfile host="app.diagrams.net" modified="2022-06-20T20:52:09.197Z" agent="5.0 (Windows NT 10.0; Win64; x64) AppleWebKit/537.36 (KHTML, like Gecko) Chrome/100.0.4896.160 YaBrowser/22.5.2.615 Yowser/2.5 Safari/537.36" etag="cvDx2T2RE90-r3aSPFmY" version="20.0.1" type="github" pages="5">
  <diagram id="BuTfEV6L3LyFcK4Iw1tR" name="Algo1_min_4numb">
    <mxGraphModel dx="1209" dy="631" grid="1" gridSize="10" guides="1" tooltips="1" connect="1" arrows="1" fold="1" page="1" pageScale="1" pageWidth="1169" pageHeight="1654" math="0" shadow="0">
      <root>
        <mxCell id="0" />
        <mxCell id="1" parent="0" />
        <mxCell id="N3PrzHlYqLp6OaTais-m-2" value="Begin" style="rounded=1;whiteSpace=wrap;html=1;fontStyle=1;fontSize=15;" parent="1" vertex="1">
          <mxGeometry x="55" y="30" width="150" height="40" as="geometry" />
        </mxCell>
        <mxCell id="N3PrzHlYqLp6OaTais-m-3" value="" style="endArrow=classic;html=1;rounded=0;fontSize=15;exitX=0.5;exitY=1;exitDx=0;exitDy=0;" parent="1" source="N3PrzHlYqLp6OaTais-m-2" edge="1">
          <mxGeometry width="50" height="50" relative="1" as="geometry">
            <mxPoint x="335" y="300" as="sourcePoint" />
            <mxPoint x="130" y="100" as="targetPoint" />
          </mxGeometry>
        </mxCell>
        <mxCell id="N3PrzHlYqLp6OaTais-m-4" value="num1, num2&lt;br&gt;num3, num4" style="shape=parallelogram;perimeter=parallelogramPerimeter;whiteSpace=wrap;html=1;fixedSize=1;fontSize=15;fontStyle=1" parent="1" vertex="1">
          <mxGeometry x="50" y="100" width="155" height="60" as="geometry" />
        </mxCell>
        <mxCell id="N3PrzHlYqLp6OaTais-m-5" value="" style="endArrow=classic;html=1;rounded=0;fontSize=15;exitX=0.5;exitY=1;exitDx=0;exitDy=0;" parent="1" source="N3PrzHlYqLp6OaTais-m-4" edge="1">
          <mxGeometry width="50" height="50" relative="1" as="geometry">
            <mxPoint x="335" y="290" as="sourcePoint" />
            <mxPoint x="129" y="190" as="targetPoint" />
          </mxGeometry>
        </mxCell>
        <mxCell id="-pNKhJgDPyZQnuKfP8y3-9" value="min = num1" style="rounded=0;whiteSpace=wrap;html=1;fontSize=15;fontStyle=1" parent="1" vertex="1">
          <mxGeometry x="60" y="190" width="130" height="60" as="geometry" />
        </mxCell>
        <mxCell id="-pNKhJgDPyZQnuKfP8y3-15" value="true" style="edgeStyle=orthogonalEdgeStyle;rounded=0;orthogonalLoop=1;jettySize=auto;html=1;exitX=1;exitY=0.5;exitDx=0;exitDy=0;fontSize=15;fontStyle=1" parent="1" source="-pNKhJgDPyZQnuKfP8y3-10" target="-pNKhJgDPyZQnuKfP8y3-16" edge="1">
          <mxGeometry relative="1" as="geometry">
            <mxPoint x="520" y="320" as="targetPoint" />
            <Array as="points">
              <mxPoint x="480" y="295" />
              <mxPoint x="480" y="340" />
            </Array>
          </mxGeometry>
        </mxCell>
        <mxCell id="-pNKhJgDPyZQnuKfP8y3-10" value="num1&amp;lt;num2" style="rhombus;whiteSpace=wrap;html=1;fontSize=15;fontStyle=1" parent="1" vertex="1">
          <mxGeometry x="220" y="260" width="210" height="70" as="geometry" />
        </mxCell>
        <mxCell id="-pNKhJgDPyZQnuKfP8y3-12" value="" style="endArrow=classic;html=1;rounded=0;fontSize=15;entryX=0.5;entryY=0;entryDx=0;entryDy=0;fontStyle=1" parent="1" target="-pNKhJgDPyZQnuKfP8y3-10" edge="1">
          <mxGeometry width="50" height="50" relative="1" as="geometry">
            <mxPoint x="190" y="220" as="sourcePoint" />
            <mxPoint x="420" y="350" as="targetPoint" />
            <Array as="points">
              <mxPoint x="325" y="220" />
            </Array>
          </mxGeometry>
        </mxCell>
        <mxCell id="-pNKhJgDPyZQnuKfP8y3-16" value="min = num1" style="rounded=0;whiteSpace=wrap;html=1;fontSize=15;fontStyle=1" parent="1" vertex="1">
          <mxGeometry x="500" y="310" width="120" height="60" as="geometry" />
        </mxCell>
        <mxCell id="-pNKhJgDPyZQnuKfP8y3-17" value="false" style="endArrow=classic;html=1;rounded=0;fontSize=15;exitX=0.5;exitY=1;exitDx=0;exitDy=0;fontStyle=1" parent="1" source="-pNKhJgDPyZQnuKfP8y3-10" target="-pNKhJgDPyZQnuKfP8y3-18" edge="1">
          <mxGeometry width="50" height="50" relative="1" as="geometry">
            <mxPoint x="370" y="540" as="sourcePoint" />
            <mxPoint x="325" y="390" as="targetPoint" />
          </mxGeometry>
        </mxCell>
        <mxCell id="-pNKhJgDPyZQnuKfP8y3-18" value="min = num2" style="rounded=0;whiteSpace=wrap;html=1;fontSize=15;fontStyle=1" parent="1" vertex="1">
          <mxGeometry x="245" y="375" width="160" height="60" as="geometry" />
        </mxCell>
        <mxCell id="-pNKhJgDPyZQnuKfP8y3-21" value="" style="endArrow=classic;html=1;rounded=0;fontSize=15;fontStyle=1" parent="1" edge="1">
          <mxGeometry width="50" height="50" relative="1" as="geometry">
            <mxPoint x="620" y="340" as="sourcePoint" />
            <mxPoint x="680" y="380" as="targetPoint" />
            <Array as="points">
              <mxPoint x="680" y="340" />
            </Array>
          </mxGeometry>
        </mxCell>
        <mxCell id="-pNKhJgDPyZQnuKfP8y3-24" value="min&amp;lt;num3" style="rhombus;whiteSpace=wrap;html=1;fontSize=15;fontStyle=1" parent="1" vertex="1">
          <mxGeometry x="560" y="380" width="230" height="80" as="geometry" />
        </mxCell>
        <mxCell id="-pNKhJgDPyZQnuKfP8y3-25" value="true" style="edgeStyle=orthogonalEdgeStyle;rounded=0;orthogonalLoop=1;jettySize=auto;html=1;exitX=1;exitY=0.5;exitDx=0;exitDy=0;fontSize=15;entryX=0.5;entryY=0;entryDx=0;entryDy=0;fontStyle=1" parent="1" target="-pNKhJgDPyZQnuKfP8y3-29" edge="1">
          <mxGeometry relative="1" as="geometry">
            <mxPoint x="950" y="480" as="targetPoint" />
            <mxPoint x="790" y="420" as="sourcePoint" />
            <Array as="points">
              <mxPoint x="840" y="420" />
              <mxPoint x="840" y="465" />
              <mxPoint x="1035" y="465" />
            </Array>
          </mxGeometry>
        </mxCell>
        <mxCell id="-pNKhJgDPyZQnuKfP8y3-29" value="min&amp;lt;num4" style="rhombus;whiteSpace=wrap;html=1;fontSize=15;fontStyle=1" parent="1" vertex="1">
          <mxGeometry x="920" y="500" width="230" height="80" as="geometry" />
        </mxCell>
        <mxCell id="-pNKhJgDPyZQnuKfP8y3-30" value="true" style="edgeStyle=orthogonalEdgeStyle;rounded=0;orthogonalLoop=1;jettySize=auto;html=1;exitX=1;exitY=0.5;exitDx=0;exitDy=0;fontSize=15;entryX=0.5;entryY=0;entryDx=0;entryDy=0;fontStyle=1" parent="1" target="-pNKhJgDPyZQnuKfP8y3-47" edge="1">
          <mxGeometry relative="1" as="geometry">
            <mxPoint x="1220" y="585" as="targetPoint" />
            <mxPoint x="1150" y="540" as="sourcePoint" />
            <Array as="points">
              <mxPoint x="1280" y="540" />
            </Array>
          </mxGeometry>
        </mxCell>
        <mxCell id="-pNKhJgDPyZQnuKfP8y3-37" value="" style="endArrow=classic;html=1;rounded=0;fontSize=15;entryX=0;entryY=0.5;entryDx=0;entryDy=0;fontStyle=1" parent="1" target="-pNKhJgDPyZQnuKfP8y3-24" edge="1">
          <mxGeometry width="50" height="50" relative="1" as="geometry">
            <mxPoint x="410" y="410" as="sourcePoint" />
            <mxPoint x="470" y="450" as="targetPoint" />
            <Array as="points" />
          </mxGeometry>
        </mxCell>
        <mxCell id="-pNKhJgDPyZQnuKfP8y3-41" value="false" style="endArrow=classic;html=1;rounded=0;fontSize=15;exitX=0.5;exitY=1;exitDx=0;exitDy=0;fontStyle=1" parent="1" target="-pNKhJgDPyZQnuKfP8y3-42" edge="1">
          <mxGeometry width="50" height="50" relative="1" as="geometry">
            <mxPoint x="680" y="460" as="sourcePoint" />
            <mxPoint x="680" y="520" as="targetPoint" />
          </mxGeometry>
        </mxCell>
        <mxCell id="-pNKhJgDPyZQnuKfP8y3-42" value="min = num3" style="rounded=0;whiteSpace=wrap;html=1;fontSize=15;fontStyle=1" parent="1" vertex="1">
          <mxGeometry x="600" y="505" width="160" height="60" as="geometry" />
        </mxCell>
        <mxCell id="-pNKhJgDPyZQnuKfP8y3-43" value="" style="endArrow=classic;html=1;rounded=0;fontSize=15;entryX=0;entryY=0.5;entryDx=0;entryDy=0;fontStyle=1" parent="1" target="-pNKhJgDPyZQnuKfP8y3-29" edge="1">
          <mxGeometry width="50" height="50" relative="1" as="geometry">
            <mxPoint x="765" y="540" as="sourcePoint" />
            <mxPoint x="915" y="550" as="targetPoint" />
            <Array as="points" />
          </mxGeometry>
        </mxCell>
        <mxCell id="-pNKhJgDPyZQnuKfP8y3-44" value="false" style="endArrow=classic;html=1;rounded=0;fontSize=15;exitX=0.5;exitY=1;exitDx=0;exitDy=0;fontStyle=1" parent="1" target="-pNKhJgDPyZQnuKfP8y3-45" edge="1">
          <mxGeometry width="50" height="50" relative="1" as="geometry">
            <mxPoint x="1040" y="580" as="sourcePoint" />
            <mxPoint x="1040" y="640" as="targetPoint" />
          </mxGeometry>
        </mxCell>
        <mxCell id="-pNKhJgDPyZQnuKfP8y3-45" value="min = num4" style="rounded=0;whiteSpace=wrap;html=1;fontSize=15;fontStyle=1" parent="1" vertex="1">
          <mxGeometry x="960" y="625" width="160" height="60" as="geometry" />
        </mxCell>
        <mxCell id="-pNKhJgDPyZQnuKfP8y3-46" value="" style="endArrow=classic;html=1;rounded=0;fontSize=15;entryX=0.5;entryY=0;entryDx=0;entryDy=0;fontStyle=1" parent="1" edge="1">
          <mxGeometry width="50" height="50" relative="1" as="geometry">
            <mxPoint x="1125" y="660" as="sourcePoint" />
            <mxPoint x="1280" y="690" as="targetPoint" />
            <Array as="points">
              <mxPoint x="1280" y="660" />
            </Array>
          </mxGeometry>
        </mxCell>
        <mxCell id="-pNKhJgDPyZQnuKfP8y3-47" value="min" style="shape=parallelogram;perimeter=parallelogramPerimeter;whiteSpace=wrap;html=1;fixedSize=1;fontSize=15;fontStyle=1" parent="1" vertex="1">
          <mxGeometry x="1220" y="690" width="120" height="60" as="geometry" />
        </mxCell>
        <mxCell id="-pNKhJgDPyZQnuKfP8y3-48" value="" style="endArrow=classic;html=1;rounded=0;fontSize=15;exitX=0.5;exitY=1;exitDx=0;exitDy=0;fontStyle=1;entryX=0.577;entryY=-0.044;entryDx=0;entryDy=0;entryPerimeter=0;" parent="1" source="-pNKhJgDPyZQnuKfP8y3-47" target="-pNKhJgDPyZQnuKfP8y3-49" edge="1">
          <mxGeometry width="50" height="50" relative="1" as="geometry">
            <mxPoint x="610" y="730" as="sourcePoint" />
            <mxPoint x="1280" y="860" as="targetPoint" />
          </mxGeometry>
        </mxCell>
        <mxCell id="-pNKhJgDPyZQnuKfP8y3-49" value="End" style="rounded=1;whiteSpace=wrap;html=1;fontSize=15;fontStyle=1" parent="1" vertex="1">
          <mxGeometry x="1210" y="790" width="120" height="60" as="geometry" />
        </mxCell>
      </root>
    </mxGraphModel>
  </diagram>
  <diagram name="Algo3_arith_mean" id="KowNisqz8v23DXBEWNWt">
    <mxGraphModel dx="1209" dy="631" grid="1" gridSize="10" guides="1" tooltips="1" connect="1" arrows="1" fold="1" page="1" pageScale="1" pageWidth="1169" pageHeight="1654" math="0" shadow="0">
      <root>
        <mxCell id="fqCdnEYk113j-awXSuVy-0" />
        <mxCell id="fqCdnEYk113j-awXSuVy-1" parent="fqCdnEYk113j-awXSuVy-0" />
        <mxCell id="fqCdnEYk113j-awXSuVy-2" value="Begin" style="rounded=1;whiteSpace=wrap;html=1;fontStyle=1;fontSize=15;" parent="fqCdnEYk113j-awXSuVy-1" vertex="1">
          <mxGeometry x="515" y="20" width="150" height="40" as="geometry" />
        </mxCell>
        <mxCell id="fqCdnEYk113j-awXSuVy-3" value="" style="endArrow=classic;html=1;rounded=0;fontSize=15;exitX=0.5;exitY=1;exitDx=0;exitDy=0;fontStyle=1" parent="fqCdnEYk113j-awXSuVy-1" source="fqCdnEYk113j-awXSuVy-2" edge="1">
          <mxGeometry width="50" height="50" relative="1" as="geometry">
            <mxPoint x="795" y="290" as="sourcePoint" />
            <mxPoint x="590" y="90" as="targetPoint" />
          </mxGeometry>
        </mxCell>
        <mxCell id="fqCdnEYk113j-awXSuVy-4" value="end = 4&lt;br&gt;current = 1&lt;br&gt;sum = 0" style="shape=parallelogram;perimeter=parallelogramPerimeter;whiteSpace=wrap;html=1;fixedSize=1;fontSize=15;fontStyle=1" parent="fqCdnEYk113j-awXSuVy-1" vertex="1">
          <mxGeometry x="510" y="90" width="155" height="60" as="geometry" />
        </mxCell>
        <mxCell id="fqCdnEYk113j-awXSuVy-5" value="" style="endArrow=classic;html=1;rounded=0;fontSize=15;exitX=0.5;exitY=1;exitDx=0;exitDy=0;fontStyle=1" parent="fqCdnEYk113j-awXSuVy-1" source="fqCdnEYk113j-awXSuVy-4" edge="1">
          <mxGeometry width="50" height="50" relative="1" as="geometry">
            <mxPoint x="795" y="280" as="sourcePoint" />
            <mxPoint x="589" y="180" as="targetPoint" />
          </mxGeometry>
        </mxCell>
        <mxCell id="fqCdnEYk113j-awXSuVy-6" value="min" style="shape=parallelogram;perimeter=parallelogramPerimeter;whiteSpace=wrap;html=1;fixedSize=1;fontSize=15;fontStyle=1" parent="fqCdnEYk113j-awXSuVy-1" vertex="1">
          <mxGeometry x="1220" y="690" width="120" height="60" as="geometry" />
        </mxCell>
        <mxCell id="fqCdnEYk113j-awXSuVy-7" value="" style="endArrow=classic;html=1;rounded=0;fontSize=15;exitX=0.5;exitY=1;exitDx=0;exitDy=0;fontStyle=1;entryX=0.577;entryY=-0.044;entryDx=0;entryDy=0;entryPerimeter=0;" parent="fqCdnEYk113j-awXSuVy-1" source="fqCdnEYk113j-awXSuVy-6" target="fqCdnEYk113j-awXSuVy-8" edge="1">
          <mxGeometry width="50" height="50" relative="1" as="geometry">
            <mxPoint x="610" y="730" as="sourcePoint" />
            <mxPoint x="1280" y="860" as="targetPoint" />
          </mxGeometry>
        </mxCell>
        <mxCell id="fqCdnEYk113j-awXSuVy-8" value="End" style="rounded=1;whiteSpace=wrap;html=1;fontSize=15;fontStyle=1" parent="fqCdnEYk113j-awXSuVy-1" vertex="1">
          <mxGeometry x="1210" y="790" width="120" height="60" as="geometry" />
        </mxCell>
        <mxCell id="fqCdnEYk113j-awXSuVy-9" value="true" style="edgeStyle=orthogonalEdgeStyle;rounded=0;orthogonalLoop=1;jettySize=auto;html=1;exitX=0.5;exitY=1;exitDx=0;exitDy=0;entryX=0.5;entryY=0;entryDx=0;entryDy=0;fontSize=15;fontStyle=1;startArrow=none;" parent="fqCdnEYk113j-awXSuVy-1" source="N9KC64T7J_1Q9QI6Mina-6" target="fqCdnEYk113j-awXSuVy-13" edge="1">
          <mxGeometry x="0.875" y="-119" relative="1" as="geometry">
            <mxPoint x="74" y="-111" as="offset" />
          </mxGeometry>
        </mxCell>
        <mxCell id="fqCdnEYk113j-awXSuVy-10" value="false" style="edgeStyle=orthogonalEdgeStyle;rounded=0;orthogonalLoop=1;jettySize=auto;html=1;exitX=0;exitY=0.5;exitDx=0;exitDy=0;fontSize=15;fontStyle=1" parent="fqCdnEYk113j-awXSuVy-1" source="fqCdnEYk113j-awXSuVy-11" edge="1">
          <mxGeometry relative="1" as="geometry">
            <mxPoint x="400" y="280" as="targetPoint" />
          </mxGeometry>
        </mxCell>
        <mxCell id="fqCdnEYk113j-awXSuVy-11" value="current &amp;gt; end" style="rhombus;whiteSpace=wrap;html=1;fontSize=15;fontStyle=1" parent="fqCdnEYk113j-awXSuVy-1" vertex="1">
          <mxGeometry x="490" y="180" width="200" height="80" as="geometry" />
        </mxCell>
        <mxCell id="fqCdnEYk113j-awXSuVy-12" style="edgeStyle=orthogonalEdgeStyle;rounded=0;orthogonalLoop=1;jettySize=auto;html=1;exitX=0.5;exitY=1;exitDx=0;exitDy=0;entryX=0.5;entryY=0;entryDx=0;entryDy=0;fontSize=15;fontStyle=1" parent="fqCdnEYk113j-awXSuVy-1" source="fqCdnEYk113j-awXSuVy-13" target="fqCdnEYk113j-awXSuVy-14" edge="1">
          <mxGeometry relative="1" as="geometry" />
        </mxCell>
        <mxCell id="fqCdnEYk113j-awXSuVy-13" value="sum" style="shape=parallelogram;perimeter=parallelogramPerimeter;whiteSpace=wrap;html=1;fixedSize=1;fontSize=15;fontStyle=1" parent="fqCdnEYk113j-awXSuVy-1" vertex="1">
          <mxGeometry x="710" y="380" width="170" height="40" as="geometry" />
        </mxCell>
        <mxCell id="fqCdnEYk113j-awXSuVy-14" value="End" style="rounded=1;whiteSpace=wrap;html=1;fontSize=15;fontStyle=1" parent="fqCdnEYk113j-awXSuVy-1" vertex="1">
          <mxGeometry x="735" y="460" width="120" height="60" as="geometry" />
        </mxCell>
        <mxCell id="fqCdnEYk113j-awXSuVy-20" style="edgeStyle=orthogonalEdgeStyle;rounded=0;orthogonalLoop=1;jettySize=auto;html=1;fontSize=15;fontStyle=1;exitX=0.5;exitY=1;exitDx=0;exitDy=0;" parent="fqCdnEYk113j-awXSuVy-1" source="N9KC64T7J_1Q9QI6Mina-0" edge="1">
          <mxGeometry relative="1" as="geometry">
            <mxPoint x="590" y="160" as="targetPoint" />
            <mxPoint x="400" y="390" as="sourcePoint" />
            <Array as="points">
              <mxPoint x="400" y="360" />
              <mxPoint x="190" y="360" />
              <mxPoint x="190" y="160" />
            </Array>
          </mxGeometry>
        </mxCell>
        <mxCell id="N9KC64T7J_1Q9QI6Mina-0" value="&lt;span style=&quot;font-weight: 700;&quot;&gt;sum = sum&amp;nbsp;+ current&lt;br&gt;&lt;/span&gt;&lt;span style=&quot;font-weight: 700;&quot;&gt;current = current+1&lt;/span&gt;&lt;span style=&quot;font-weight: 700;&quot;&gt;&lt;br&gt;&lt;/span&gt;" style="rounded=0;whiteSpace=wrap;html=1;fontSize=15;" parent="fqCdnEYk113j-awXSuVy-1" vertex="1">
          <mxGeometry x="300" y="280" width="200" height="50" as="geometry" />
        </mxCell>
        <mxCell id="N9KC64T7J_1Q9QI6Mina-6" value="sum = sum / end" style="rounded=0;whiteSpace=wrap;html=1;fontSize=15;fontStyle=1" parent="fqCdnEYk113j-awXSuVy-1" vertex="1">
          <mxGeometry x="735" y="250" width="125" height="60" as="geometry" />
        </mxCell>
        <mxCell id="N9KC64T7J_1Q9QI6Mina-7" value="true" style="edgeStyle=orthogonalEdgeStyle;rounded=0;orthogonalLoop=1;jettySize=auto;html=1;exitX=1;exitY=0.5;exitDx=0;exitDy=0;entryX=0.5;entryY=0;entryDx=0;entryDy=0;fontSize=15;fontStyle=1;endArrow=none;" parent="fqCdnEYk113j-awXSuVy-1" source="fqCdnEYk113j-awXSuVy-11" target="N9KC64T7J_1Q9QI6Mina-6" edge="1">
          <mxGeometry relative="1" as="geometry">
            <mxPoint x="690" y="220" as="sourcePoint" />
            <mxPoint x="795" y="340" as="targetPoint" />
          </mxGeometry>
        </mxCell>
        <mxCell id="N9KC64T7J_1Q9QI6Mina-8" value="Задача №3&lt;br style=&quot;font-size: 18px;&quot;&gt;Составьте блок-схему&amp;nbsp;нахождения среднего&lt;br style=&quot;font-size: 18px;&quot;&gt;арифметического четырех&amp;nbsp;чисел" style="text;html=1;strokeColor=none;fillColor=none;align=center;verticalAlign=middle;whiteSpace=wrap;rounded=0;fontSize=18;fontStyle=1" parent="fqCdnEYk113j-awXSuVy-1" vertex="1">
          <mxGeometry x="40" y="10" width="405" height="100" as="geometry" />
        </mxCell>
      </root>
    </mxGraphModel>
  </diagram>
  <diagram name="Algo5_sum_even_number" id="f_aJU81KM_x0VDW0D2Vb">
    <mxGraphModel dx="1209" dy="631" grid="1" gridSize="10" guides="1" tooltips="1" connect="1" arrows="1" fold="1" page="1" pageScale="1" pageWidth="1169" pageHeight="1654" math="0" shadow="0">
      <root>
        <mxCell id="NSgn1iiMLwVpXSqDT50s-0" />
        <mxCell id="NSgn1iiMLwVpXSqDT50s-1" parent="NSgn1iiMLwVpXSqDT50s-0" />
        <mxCell id="NSgn1iiMLwVpXSqDT50s-2" value="Begin" style="rounded=1;whiteSpace=wrap;html=1;fontStyle=1;fontSize=15;" parent="NSgn1iiMLwVpXSqDT50s-1" vertex="1">
          <mxGeometry x="515" y="20" width="150" height="40" as="geometry" />
        </mxCell>
        <mxCell id="NSgn1iiMLwVpXSqDT50s-3" value="" style="endArrow=classic;html=1;rounded=0;fontSize=15;exitX=0.5;exitY=1;exitDx=0;exitDy=0;fontStyle=1" parent="NSgn1iiMLwVpXSqDT50s-1" source="NSgn1iiMLwVpXSqDT50s-2" edge="1">
          <mxGeometry width="50" height="50" relative="1" as="geometry">
            <mxPoint x="795" y="290" as="sourcePoint" />
            <mxPoint x="590" y="90" as="targetPoint" />
          </mxGeometry>
        </mxCell>
        <mxCell id="NSgn1iiMLwVpXSqDT50s-4" value="end =15&lt;br&gt;current = 1&lt;br&gt;sum = 0" style="shape=parallelogram;perimeter=parallelogramPerimeter;whiteSpace=wrap;html=1;fixedSize=1;fontSize=15;fontStyle=1" parent="NSgn1iiMLwVpXSqDT50s-1" vertex="1">
          <mxGeometry x="510" y="90" width="155" height="60" as="geometry" />
        </mxCell>
        <mxCell id="NSgn1iiMLwVpXSqDT50s-5" value="" style="endArrow=classic;html=1;rounded=0;fontSize=15;exitX=0.5;exitY=1;exitDx=0;exitDy=0;fontStyle=1" parent="NSgn1iiMLwVpXSqDT50s-1" source="NSgn1iiMLwVpXSqDT50s-4" edge="1">
          <mxGeometry width="50" height="50" relative="1" as="geometry">
            <mxPoint x="795" y="280" as="sourcePoint" />
            <mxPoint x="589" y="180" as="targetPoint" />
          </mxGeometry>
        </mxCell>
        <mxCell id="NSgn1iiMLwVpXSqDT50s-25" value="min" style="shape=parallelogram;perimeter=parallelogramPerimeter;whiteSpace=wrap;html=1;fixedSize=1;fontSize=15;fontStyle=1" parent="NSgn1iiMLwVpXSqDT50s-1" vertex="1">
          <mxGeometry x="1220" y="690" width="120" height="60" as="geometry" />
        </mxCell>
        <mxCell id="NSgn1iiMLwVpXSqDT50s-26" value="" style="endArrow=classic;html=1;rounded=0;fontSize=15;exitX=0.5;exitY=1;exitDx=0;exitDy=0;fontStyle=1;entryX=0.577;entryY=-0.044;entryDx=0;entryDy=0;entryPerimeter=0;" parent="NSgn1iiMLwVpXSqDT50s-1" source="NSgn1iiMLwVpXSqDT50s-25" target="NSgn1iiMLwVpXSqDT50s-27" edge="1">
          <mxGeometry width="50" height="50" relative="1" as="geometry">
            <mxPoint x="610" y="730" as="sourcePoint" />
            <mxPoint x="1280" y="860" as="targetPoint" />
          </mxGeometry>
        </mxCell>
        <mxCell id="NSgn1iiMLwVpXSqDT50s-27" value="End" style="rounded=1;whiteSpace=wrap;html=1;fontSize=15;fontStyle=1" parent="NSgn1iiMLwVpXSqDT50s-1" vertex="1">
          <mxGeometry x="1210" y="790" width="120" height="60" as="geometry" />
        </mxCell>
        <mxCell id="_0bhXpM4jp6L_Sc2xbNX-2" value="true" style="edgeStyle=orthogonalEdgeStyle;rounded=0;orthogonalLoop=1;jettySize=auto;html=1;exitX=1;exitY=0.5;exitDx=0;exitDy=0;entryX=0.5;entryY=0;entryDx=0;entryDy=0;fontSize=15;fontStyle=1" parent="NSgn1iiMLwVpXSqDT50s-1" source="_0bhXpM4jp6L_Sc2xbNX-0" target="_0bhXpM4jp6L_Sc2xbNX-1" edge="1">
          <mxGeometry relative="1" as="geometry" />
        </mxCell>
        <mxCell id="_0bhXpM4jp6L_Sc2xbNX-5" value="false" style="edgeStyle=orthogonalEdgeStyle;rounded=0;orthogonalLoop=1;jettySize=auto;html=1;exitX=0;exitY=0.5;exitDx=0;exitDy=0;fontSize=15;fontStyle=1" parent="NSgn1iiMLwVpXSqDT50s-1" source="_0bhXpM4jp6L_Sc2xbNX-0" edge="1">
          <mxGeometry relative="1" as="geometry">
            <mxPoint x="400" y="280" as="targetPoint" />
          </mxGeometry>
        </mxCell>
        <mxCell id="_0bhXpM4jp6L_Sc2xbNX-0" value="current &amp;gt; end" style="rhombus;whiteSpace=wrap;html=1;fontSize=15;fontStyle=1" parent="NSgn1iiMLwVpXSqDT50s-1" vertex="1">
          <mxGeometry x="490" y="180" width="200" height="80" as="geometry" />
        </mxCell>
        <mxCell id="_0bhXpM4jp6L_Sc2xbNX-4" style="edgeStyle=orthogonalEdgeStyle;rounded=0;orthogonalLoop=1;jettySize=auto;html=1;exitX=0.5;exitY=1;exitDx=0;exitDy=0;entryX=0.5;entryY=0;entryDx=0;entryDy=0;fontSize=15;fontStyle=1" parent="NSgn1iiMLwVpXSqDT50s-1" source="_0bhXpM4jp6L_Sc2xbNX-1" target="_0bhXpM4jp6L_Sc2xbNX-3" edge="1">
          <mxGeometry relative="1" as="geometry" />
        </mxCell>
        <mxCell id="_0bhXpM4jp6L_Sc2xbNX-1" value="sum" style="shape=parallelogram;perimeter=parallelogramPerimeter;whiteSpace=wrap;html=1;fixedSize=1;fontSize=15;fontStyle=1" parent="NSgn1iiMLwVpXSqDT50s-1" vertex="1">
          <mxGeometry x="710" y="270" width="170" height="40" as="geometry" />
        </mxCell>
        <mxCell id="_0bhXpM4jp6L_Sc2xbNX-3" value="End" style="rounded=1;whiteSpace=wrap;html=1;fontSize=15;fontStyle=1" parent="NSgn1iiMLwVpXSqDT50s-1" vertex="1">
          <mxGeometry x="735" y="460" width="120" height="60" as="geometry" />
        </mxCell>
        <mxCell id="_0bhXpM4jp6L_Sc2xbNX-8" value="true" style="edgeStyle=orthogonalEdgeStyle;rounded=0;orthogonalLoop=1;jettySize=auto;html=1;exitX=1;exitY=0.5;exitDx=0;exitDy=0;entryX=0.5;entryY=0;entryDx=0;entryDy=0;fontSize=15;fontStyle=1" parent="NSgn1iiMLwVpXSqDT50s-1" source="_0bhXpM4jp6L_Sc2xbNX-6" target="_0bhXpM4jp6L_Sc2xbNX-7" edge="1">
          <mxGeometry relative="1" as="geometry" />
        </mxCell>
        <mxCell id="_0bhXpM4jp6L_Sc2xbNX-12" value="false" style="edgeStyle=orthogonalEdgeStyle;rounded=0;orthogonalLoop=1;jettySize=auto;html=1;exitX=0.5;exitY=1;exitDx=0;exitDy=0;fontSize=15;fontStyle=1" parent="NSgn1iiMLwVpXSqDT50s-1" source="_0bhXpM4jp6L_Sc2xbNX-6" edge="1">
          <mxGeometry relative="1" as="geometry">
            <mxPoint x="370" y="470" as="targetPoint" />
          </mxGeometry>
        </mxCell>
        <mxCell id="_0bhXpM4jp6L_Sc2xbNX-6" value="current % 2 = 0" style="rhombus;whiteSpace=wrap;html=1;fontSize=15;fontStyle=1" parent="NSgn1iiMLwVpXSqDT50s-1" vertex="1">
          <mxGeometry x="290" y="280" width="220" height="50" as="geometry" />
        </mxCell>
        <mxCell id="_0bhXpM4jp6L_Sc2xbNX-11" style="edgeStyle=orthogonalEdgeStyle;rounded=0;orthogonalLoop=1;jettySize=auto;html=1;exitX=0.5;exitY=1;exitDx=0;exitDy=0;entryX=0.5;entryY=0;entryDx=0;entryDy=0;fontSize=15;fontStyle=1" parent="NSgn1iiMLwVpXSqDT50s-1" source="_0bhXpM4jp6L_Sc2xbNX-7" target="_0bhXpM4jp6L_Sc2xbNX-9" edge="1">
          <mxGeometry relative="1" as="geometry" />
        </mxCell>
        <mxCell id="_0bhXpM4jp6L_Sc2xbNX-7" value="sum = sum&amp;nbsp;+ current" style="rounded=0;whiteSpace=wrap;html=1;fontSize=15;fontStyle=1" parent="NSgn1iiMLwVpXSqDT50s-1" vertex="1">
          <mxGeometry x="490" y="360" width="170" height="60" as="geometry" />
        </mxCell>
        <mxCell id="_0bhXpM4jp6L_Sc2xbNX-13" style="edgeStyle=orthogonalEdgeStyle;rounded=0;orthogonalLoop=1;jettySize=auto;html=1;exitX=0.5;exitY=1;exitDx=0;exitDy=0;fontSize=15;fontStyle=1" parent="NSgn1iiMLwVpXSqDT50s-1" source="_0bhXpM4jp6L_Sc2xbNX-9" edge="1">
          <mxGeometry relative="1" as="geometry">
            <mxPoint x="590" y="160" as="targetPoint" />
            <Array as="points">
              <mxPoint x="370" y="550" />
              <mxPoint x="190" y="550" />
              <mxPoint x="190" y="160" />
            </Array>
          </mxGeometry>
        </mxCell>
        <mxCell id="_0bhXpM4jp6L_Sc2xbNX-9" value="current = current+1" style="rounded=0;whiteSpace=wrap;html=1;fontSize=15;fontStyle=1" parent="NSgn1iiMLwVpXSqDT50s-1" vertex="1">
          <mxGeometry x="290" y="470" width="160" height="60" as="geometry" />
        </mxCell>
      </root>
    </mxGraphModel>
  </diagram>
  <diagram id="WA81AEMqXSIT4BeUHNC-" name="Page-4">
    <mxGraphModel dx="1209" dy="631" grid="1" gridSize="10" guides="1" tooltips="1" connect="1" arrows="1" fold="1" page="1" pageScale="1" pageWidth="1169" pageHeight="1654" math="0" shadow="0">
      <root>
        <mxCell id="0" />
        <mxCell id="1" parent="0" />
        <mxCell id="aP0DJpHpH51eB49AMqnX-5" style="edgeStyle=orthogonalEdgeStyle;rounded=0;orthogonalLoop=1;jettySize=auto;html=1;exitX=0.5;exitY=1;exitDx=0;exitDy=0;fontSize=18;fontStyle=1" parent="1" source="iGrYpoeFO200tAgPSrHb-1" target="aP0DJpHpH51eB49AMqnX-2" edge="1">
          <mxGeometry relative="1" as="geometry" />
        </mxCell>
        <mxCell id="iGrYpoeFO200tAgPSrHb-1" value="Begin" style="rounded=1;whiteSpace=wrap;html=1;fontSize=15;fontStyle=1" parent="1" vertex="1">
          <mxGeometry x="490" y="50" width="130" height="40" as="geometry" />
        </mxCell>
        <mxCell id="aP0DJpHpH51eB49AMqnX-1" value="Задача №6&lt;br style=&quot;font-size: 18px;&quot;&gt;Составьте блок-схему&lt;br/&gt;нахождения факториала N" style="text;html=1;strokeColor=none;fillColor=none;align=center;verticalAlign=middle;whiteSpace=wrap;rounded=0;fontSize=18;fontStyle=1" parent="1" vertex="1">
          <mxGeometry x="140" y="50" width="300" height="100" as="geometry" />
        </mxCell>
        <mxCell id="aP0DJpHpH51eB49AMqnX-7" style="edgeStyle=orthogonalEdgeStyle;rounded=0;orthogonalLoop=1;jettySize=auto;html=1;exitX=0.5;exitY=1;exitDx=0;exitDy=0;entryX=0.5;entryY=0;entryDx=0;entryDy=0;fontSize=15;fontStyle=1" parent="1" source="aP0DJpHpH51eB49AMqnX-2" target="aP0DJpHpH51eB49AMqnX-6" edge="1">
          <mxGeometry relative="1" as="geometry" />
        </mxCell>
        <mxCell id="aP0DJpHpH51eB49AMqnX-2" value="end = N&lt;br&gt;i=1&lt;br&gt;factor = 1" style="shape=parallelogram;perimeter=parallelogramPerimeter;whiteSpace=wrap;html=1;fixedSize=1;fontSize=15;fontStyle=1" parent="1" vertex="1">
          <mxGeometry x="470" y="130" width="170" height="60" as="geometry" />
        </mxCell>
        <mxCell id="aP0DJpHpH51eB49AMqnX-8" value="true" style="edgeStyle=orthogonalEdgeStyle;rounded=0;orthogonalLoop=1;jettySize=auto;html=1;exitX=1;exitY=0.5;exitDx=0;exitDy=0;fontSize=15;fontStyle=1" parent="1" source="aP0DJpHpH51eB49AMqnX-6" target="aP0DJpHpH51eB49AMqnX-9" edge="1">
          <mxGeometry relative="1" as="geometry">
            <mxPoint x="770" y="260" as="targetPoint" />
          </mxGeometry>
        </mxCell>
        <mxCell id="aP0DJpHpH51eB49AMqnX-10" value="false" style="edgeStyle=orthogonalEdgeStyle;rounded=0;orthogonalLoop=1;jettySize=auto;html=1;exitX=0.5;exitY=1;exitDx=0;exitDy=0;fontSize=15;fontStyle=1" parent="1" source="aP0DJpHpH51eB49AMqnX-6" target="aP0DJpHpH51eB49AMqnX-11" edge="1">
          <mxGeometry relative="1" as="geometry">
            <mxPoint x="555" y="340" as="targetPoint" />
          </mxGeometry>
        </mxCell>
        <mxCell id="aP0DJpHpH51eB49AMqnX-6" value="i = end" style="rhombus;whiteSpace=wrap;html=1;fontSize=15;fontStyle=1" parent="1" vertex="1">
          <mxGeometry x="485" y="220" width="140" height="80" as="geometry" />
        </mxCell>
        <mxCell id="6sAJ2apNkZySl3QXB8M6-2" style="edgeStyle=orthogonalEdgeStyle;rounded=0;orthogonalLoop=1;jettySize=auto;html=1;exitX=0.5;exitY=1;exitDx=0;exitDy=0;entryX=0.5;entryY=0;entryDx=0;entryDy=0;fontSize=15;fontStyle=1" parent="1" source="aP0DJpHpH51eB49AMqnX-9" target="6sAJ2apNkZySl3QXB8M6-1" edge="1">
          <mxGeometry relative="1" as="geometry" />
        </mxCell>
        <mxCell id="aP0DJpHpH51eB49AMqnX-9" value="product" style="shape=parallelogram;perimeter=parallelogramPerimeter;whiteSpace=wrap;html=1;fixedSize=1;fontSize=15;fontStyle=1" parent="1" vertex="1">
          <mxGeometry x="770" y="230" width="150" height="60" as="geometry" />
        </mxCell>
        <mxCell id="aP0DJpHpH51eB49AMqnX-13" style="edgeStyle=orthogonalEdgeStyle;rounded=0;orthogonalLoop=1;jettySize=auto;html=1;exitX=0.5;exitY=1;exitDx=0;exitDy=0;entryX=0;entryY=0.5;entryDx=0;entryDy=0;fontSize=15;fontStyle=1" parent="1" source="aP0DJpHpH51eB49AMqnX-11" target="aP0DJpHpH51eB49AMqnX-6" edge="1">
          <mxGeometry relative="1" as="geometry">
            <Array as="points">
              <mxPoint x="555" y="450" />
              <mxPoint x="400" y="450" />
              <mxPoint x="400" y="260" />
            </Array>
          </mxGeometry>
        </mxCell>
        <mxCell id="aP0DJpHpH51eB49AMqnX-11" value="factor = factor * (i+1)&lt;br&gt;i = i + 1" style="rounded=0;whiteSpace=wrap;html=1;fontSize=15;fontStyle=1" parent="1" vertex="1">
          <mxGeometry x="430" y="370" width="250" height="60" as="geometry" />
        </mxCell>
        <mxCell id="6sAJ2apNkZySl3QXB8M6-1" value="End" style="rounded=1;whiteSpace=wrap;html=1;fontSize=15;fontStyle=1" parent="1" vertex="1">
          <mxGeometry x="785" y="370" width="120" height="60" as="geometry" />
        </mxCell>
      </root>
    </mxGraphModel>
  </diagram>
  <diagram id="Nl_8gE7qrzwFez5rAoTl" name="Page-5">
    <mxGraphModel dx="1209" dy="631" grid="1" gridSize="10" guides="1" tooltips="1" connect="1" arrows="1" fold="1" page="1" pageScale="1" pageWidth="1169" pageHeight="1654" math="0" shadow="0">
      <root>
        <mxCell id="0" />
        <mxCell id="1" parent="0" />
        <mxCell id="8V7DPeCuMiiIEzDSoyAU-1" style="edgeStyle=orthogonalEdgeStyle;rounded=0;orthogonalLoop=1;jettySize=auto;html=1;exitX=0.5;exitY=1;exitDx=0;exitDy=0;fontSize=18;fontStyle=1" edge="1" parent="1" source="8V7DPeCuMiiIEzDSoyAU-2" target="8V7DPeCuMiiIEzDSoyAU-4">
          <mxGeometry relative="1" as="geometry" />
        </mxCell>
        <mxCell id="8V7DPeCuMiiIEzDSoyAU-2" value="Begin" style="rounded=1;whiteSpace=wrap;html=1;fontSize=15;fontStyle=1" vertex="1" parent="1">
          <mxGeometry x="600" y="40" width="130" height="40" as="geometry" />
        </mxCell>
        <mxCell id="Gk1CewW8PekKptFmgBt_-6" style="edgeStyle=orthogonalEdgeStyle;rounded=0;orthogonalLoop=1;jettySize=auto;html=1;exitX=0.5;exitY=1;exitDx=0;exitDy=0;entryX=0.5;entryY=0;entryDx=0;entryDy=0;" edge="1" parent="1" source="8V7DPeCuMiiIEzDSoyAU-4" target="Gk1CewW8PekKptFmgBt_-1">
          <mxGeometry relative="1" as="geometry" />
        </mxCell>
        <mxCell id="8V7DPeCuMiiIEzDSoyAU-4" value="massiv&lt;br&gt;i = 0&lt;br&gt;size = N" style="shape=parallelogram;perimeter=parallelogramPerimeter;whiteSpace=wrap;html=1;fixedSize=1;fontSize=15;fontStyle=1" vertex="1" parent="1">
          <mxGeometry x="550" y="120" width="230" height="60" as="geometry" />
        </mxCell>
        <mxCell id="8V7DPeCuMiiIEzDSoyAU-6" value="true" style="edgeStyle=orthogonalEdgeStyle;rounded=0;orthogonalLoop=1;jettySize=auto;html=1;exitX=0.5;exitY=1;exitDx=0;exitDy=0;fontSize=15;fontStyle=1" edge="1" parent="1" source="8V7DPeCuMiiIEzDSoyAU-7">
          <mxGeometry relative="1" as="geometry">
            <mxPoint x="665" y="470" as="targetPoint" />
          </mxGeometry>
        </mxCell>
        <mxCell id="Gk1CewW8PekKptFmgBt_-20" style="edgeStyle=orthogonalEdgeStyle;rounded=0;orthogonalLoop=1;jettySize=auto;html=1;exitX=1;exitY=0.5;exitDx=0;exitDy=0;fontSize=15;entryX=0;entryY=0.5;entryDx=0;entryDy=0;" edge="1" parent="1" source="8V7DPeCuMiiIEzDSoyAU-7" target="8V7DPeCuMiiIEzDSoyAU-9">
          <mxGeometry relative="1" as="geometry">
            <mxPoint x="850" y="380" as="targetPoint" />
          </mxGeometry>
        </mxCell>
        <mxCell id="Gk1CewW8PekKptFmgBt_-22" value="false" style="edgeLabel;html=1;align=center;verticalAlign=middle;resizable=0;points=[];fontSize=15;fontStyle=1" vertex="1" connectable="0" parent="Gk1CewW8PekKptFmgBt_-20">
          <mxGeometry x="-0.2908" y="-4" relative="1" as="geometry">
            <mxPoint as="offset" />
          </mxGeometry>
        </mxCell>
        <mxCell id="8V7DPeCuMiiIEzDSoyAU-7" value="i =&amp;lt; N" style="rhombus;whiteSpace=wrap;html=1;fontSize=15;fontStyle=1" vertex="1" parent="1">
          <mxGeometry x="595" y="340" width="140" height="80" as="geometry" />
        </mxCell>
        <mxCell id="8V7DPeCuMiiIEzDSoyAU-8" style="edgeStyle=orthogonalEdgeStyle;rounded=0;orthogonalLoop=1;jettySize=auto;html=1;exitX=0.5;exitY=1;exitDx=0;exitDy=0;entryX=0.5;entryY=0;entryDx=0;entryDy=0;fontSize=15;fontStyle=1" edge="1" parent="1" source="8V7DPeCuMiiIEzDSoyAU-9" target="8V7DPeCuMiiIEzDSoyAU-12">
          <mxGeometry relative="1" as="geometry" />
        </mxCell>
        <mxCell id="8V7DPeCuMiiIEzDSoyAU-9" value="indMax&lt;br&gt;indMin" style="shape=parallelogram;perimeter=parallelogramPerimeter;whiteSpace=wrap;html=1;fixedSize=1;fontSize=15;fontStyle=1" vertex="1" parent="1">
          <mxGeometry x="840" y="350" width="150" height="60" as="geometry" />
        </mxCell>
        <mxCell id="8V7DPeCuMiiIEzDSoyAU-12" value="End" style="rounded=1;whiteSpace=wrap;html=1;fontSize=15;fontStyle=1" vertex="1" parent="1">
          <mxGeometry x="855" y="490" width="120" height="60" as="geometry" />
        </mxCell>
        <mxCell id="Gk1CewW8PekKptFmgBt_-4" style="edgeStyle=orthogonalEdgeStyle;rounded=0;orthogonalLoop=1;jettySize=auto;html=1;exitX=0.5;exitY=1;exitDx=0;exitDy=0;entryX=0.5;entryY=0;entryDx=0;entryDy=0;" edge="1" parent="1" source="Gk1CewW8PekKptFmgBt_-1" target="8V7DPeCuMiiIEzDSoyAU-7">
          <mxGeometry relative="1" as="geometry" />
        </mxCell>
        <mxCell id="Gk1CewW8PekKptFmgBt_-1" value="&lt;span style=&quot;font-size: 15px; font-weight: 700;&quot;&gt;max = massiv [0]&lt;br&gt;min = massiv [0]&lt;br&gt;indMax = 0&lt;br&gt;indMin = 0&lt;br&gt;&lt;/span&gt;" style="rounded=0;whiteSpace=wrap;html=1;" vertex="1" parent="1">
          <mxGeometry x="585" y="220" width="160" height="100" as="geometry" />
        </mxCell>
        <mxCell id="Gk1CewW8PekKptFmgBt_-8" value="true" style="edgeStyle=orthogonalEdgeStyle;rounded=0;orthogonalLoop=1;jettySize=auto;html=1;exitX=0.5;exitY=1;exitDx=0;exitDy=0;entryX=0.5;entryY=0;entryDx=0;entryDy=0;fontSize=15;fontStyle=1" edge="1" parent="1" source="Gk1CewW8PekKptFmgBt_-7" target="Gk1CewW8PekKptFmgBt_-10">
          <mxGeometry relative="1" as="geometry">
            <mxPoint x="665" y="580" as="targetPoint" />
          </mxGeometry>
        </mxCell>
        <mxCell id="Gk1CewW8PekKptFmgBt_-12" value="false" style="edgeStyle=orthogonalEdgeStyle;rounded=0;orthogonalLoop=1;jettySize=auto;html=1;exitX=0;exitY=0.5;exitDx=0;exitDy=0;fontSize=15;fontStyle=1" edge="1" parent="1" source="Gk1CewW8PekKptFmgBt_-7">
          <mxGeometry x="-0.3333" relative="1" as="geometry">
            <mxPoint x="460" y="590" as="targetPoint" />
            <mxPoint as="offset" />
          </mxGeometry>
        </mxCell>
        <mxCell id="Gk1CewW8PekKptFmgBt_-7" value="massiv [i] &amp;gt;= max" style="rhombus;whiteSpace=wrap;html=1;fontSize=15;fontStyle=1" vertex="1" parent="1">
          <mxGeometry x="575" y="470" width="180" height="80" as="geometry" />
        </mxCell>
        <mxCell id="Gk1CewW8PekKptFmgBt_-24" style="edgeStyle=orthogonalEdgeStyle;rounded=0;orthogonalLoop=1;jettySize=auto;html=1;exitX=0.5;exitY=1;exitDx=0;exitDy=0;entryX=0.5;entryY=1;entryDx=0;entryDy=0;fontSize=15;fontStyle=1" edge="1" parent="1" source="Gk1CewW8PekKptFmgBt_-10" target="Gk1CewW8PekKptFmgBt_-18">
          <mxGeometry relative="1" as="geometry">
            <Array as="points">
              <mxPoint x="665" y="800" />
              <mxPoint x="200" y="800" />
            </Array>
          </mxGeometry>
        </mxCell>
        <mxCell id="Gk1CewW8PekKptFmgBt_-10" value="&lt;span style=&quot;font-size: 15px;&quot;&gt;max = massiv [i]&lt;br&gt;indMax = i&lt;br style=&quot;font-size: 15px;&quot;&gt;&lt;/span&gt;" style="rounded=0;whiteSpace=wrap;html=1;fontSize=15;fontStyle=1" vertex="1" parent="1">
          <mxGeometry x="585" y="600" width="160" height="60" as="geometry" />
        </mxCell>
        <mxCell id="Gk1CewW8PekKptFmgBt_-26" value="false" style="edgeStyle=orthogonalEdgeStyle;rounded=0;orthogonalLoop=1;jettySize=auto;html=1;exitX=0;exitY=0.5;exitDx=0;exitDy=0;entryX=1;entryY=0.5;entryDx=0;entryDy=0;fontSize=15;fontStyle=1" edge="1" parent="1" source="Gk1CewW8PekKptFmgBt_-13" target="Gk1CewW8PekKptFmgBt_-18">
          <mxGeometry relative="1" as="geometry" />
        </mxCell>
        <mxCell id="Gk1CewW8PekKptFmgBt_-13" value="massiv [i] =&amp;lt; min" style="rhombus;whiteSpace=wrap;html=1;fontSize=15;fontStyle=1" vertex="1" parent="1">
          <mxGeometry x="370" y="590" width="180" height="80" as="geometry" />
        </mxCell>
        <mxCell id="Gk1CewW8PekKptFmgBt_-14" value="true" style="edgeStyle=orthogonalEdgeStyle;rounded=0;orthogonalLoop=1;jettySize=auto;html=1;exitX=0.5;exitY=1;exitDx=0;exitDy=0;entryX=0.5;entryY=0;entryDx=0;entryDy=0;fontSize=15;fontStyle=1" edge="1" parent="1" target="Gk1CewW8PekKptFmgBt_-15">
          <mxGeometry relative="1" as="geometry">
            <mxPoint x="460" y="700" as="targetPoint" />
            <mxPoint x="460" y="670" as="sourcePoint" />
          </mxGeometry>
        </mxCell>
        <mxCell id="Gk1CewW8PekKptFmgBt_-25" style="edgeStyle=orthogonalEdgeStyle;rounded=0;orthogonalLoop=1;jettySize=auto;html=1;exitX=0;exitY=0.5;exitDx=0;exitDy=0;fontSize=15;fontStyle=1;entryX=0.5;entryY=1;entryDx=0;entryDy=0;" edge="1" parent="1" source="Gk1CewW8PekKptFmgBt_-15" target="Gk1CewW8PekKptFmgBt_-18">
          <mxGeometry relative="1" as="geometry">
            <mxPoint x="200" y="750" as="targetPoint" />
            <Array as="points">
              <mxPoint x="200" y="740" />
            </Array>
          </mxGeometry>
        </mxCell>
        <mxCell id="Gk1CewW8PekKptFmgBt_-15" value="&lt;span style=&quot;font-size: 15px;&quot;&gt;min = massiv [i]&lt;br&gt;indMin = i&lt;br style=&quot;font-size: 15px;&quot;&gt;&lt;/span&gt;" style="rounded=0;whiteSpace=wrap;html=1;fontSize=15;fontStyle=1" vertex="1" parent="1">
          <mxGeometry x="380" y="720" width="160" height="40" as="geometry" />
        </mxCell>
        <mxCell id="Gk1CewW8PekKptFmgBt_-27" style="edgeStyle=orthogonalEdgeStyle;rounded=0;orthogonalLoop=1;jettySize=auto;html=1;exitX=0.5;exitY=0;exitDx=0;exitDy=0;entryX=0;entryY=0.5;entryDx=0;entryDy=0;fontSize=15;" edge="1" parent="1" source="Gk1CewW8PekKptFmgBt_-18" target="8V7DPeCuMiiIEzDSoyAU-7">
          <mxGeometry relative="1" as="geometry" />
        </mxCell>
        <mxCell id="Gk1CewW8PekKptFmgBt_-18" value="&lt;span style=&quot;font-size: 15px;&quot;&gt;i = i+1&lt;br style=&quot;font-size: 15px;&quot;&gt;&lt;/span&gt;" style="rounded=0;whiteSpace=wrap;html=1;fontSize=15;fontStyle=1" vertex="1" parent="1">
          <mxGeometry x="120" y="600" width="160" height="60" as="geometry" />
        </mxCell>
        <mxCell id="Gk1CewW8PekKptFmgBt_-28" value="&lt;span style=&quot;color: rgb(44, 45, 48); font-family: Roboto, &amp;quot;San Francisco&amp;quot;, &amp;quot;Helvetica Neue&amp;quot;, Helvetica, Arial; text-align: left; background-color: rgb(255, 255, 255); font-size: 19px;&quot;&gt;Задача 1.&lt;br style=&quot;font-size: 19px;&quot;&gt;Нахождение индексов &lt;br style=&quot;font-size: 19px;&quot;&gt;максимального и минимального&lt;br&gt;элемента массива.&lt;/span&gt;" style="text;html=1;align=center;verticalAlign=middle;resizable=0;points=[];autosize=1;strokeColor=none;fillColor=none;fontSize=19;fontStyle=1" vertex="1" parent="1">
          <mxGeometry x="130" y="30" width="320" height="100" as="geometry" />
        </mxCell>
      </root>
    </mxGraphModel>
  </diagram>
</mxfile>
